<svg width="100" height="100" viewBox="0 0 100 100" fill="none" xmlns="http://www.w3.org/2000/svg">
<rect width="100" height="100" rx="5" fill="#1B1B1B"/>
<path d="M54.2083 84.1979C71.2083 84.1979 84.7083 77.1094 84.7083 58.3125C84.7083 39.5208 71.2083 32.5156 54.2083 32.5156C42.5052 32.5156 33.5365 35.5885 28.0677 41.401V15H15V83.3438H28.0677V75.3125C33.5365 81.0365 42.5052 84.1979 54.2083 84.1979ZM49.8542 73.349C35.7552 73.349 28.0677 68.9896 28.0677 58.3125C28.0677 47.7188 35.7552 43.3646 49.8542 43.3646C63.9479 43.3646 71.6354 47.7188 71.6354 58.3125C71.6354 68.9896 63.9479 73.349 49.8542 73.349Z" fill="white"/>
</svg>
